<svg version="1.1" xmlns="http://www.w3.org/2000/svg" xmlns:xlink="http://www.w3.org/1999/xlink" width="128px" height="128px" viewBox="0,0,256,256">
    <g fill="#ffffff" fill-rule="nonzero" stroke="none" stroke-width="4" stroke-linecap="butt" stroke-linejoin="miter" stroke-miterlimit="10" stroke-dasharray="" stroke-dashoffset="0" font-family="none" font-weight="none" font-size="none" text-anchor="none" style="mix-blend-mode: normal">
        <g transform="scale(2,2)">
            <path d="M107,104v-20c0,-1.7 -1.3,-3 -3,-3c-1.7,0 -3,1.3 -3,3v17h-74v-17c0,-1.7 -1.3,-3 -3,-3c-1.7,0 -3,1.3 -3,3v20c0,1.7 1.3,3 3,3h80c1.7,0 3,-1.3 3,-3zM64,21c-1.7,0 -3,1.3 -3,3v42.8l-9.9,-9.9c-1.2,-1.2 -3.1,-1.2 -4.2,0c-1.2,1.2 -1.2,3.1 0,4.2l15,15c0.6,0.6 1.4,0.9 2.1,0.9c0.7,0 1.5,-0.3 2.1,-0.9l15,-15c1.2,-1.2 1.2,-3.1 0,-4.2c-1.2,-1.2 -3.1,-1.2 -4.2,0l-9.9,9.9v-42.8c0,-1.7 -1.3,-3 -3,-3z"></path>
        </g>
    </g>
</svg>